<svg xmlns="http://www.w3.org/2000/svg" width="25" height="26" fill="none" viewBox="0 0 25 26">
  <circle cx="12.5" cy="13.01" r="12.5" fill="#E9E9E9"/>
  <path fill="#969798" d="M13.617 7.51c.438-.001.875.003 1.313.014l.117.004c.134.005.266.01.427.018.638.03 1.074.13 1.456.279.396.152.73.359 1.063.692.305.3.541.663.692 1.063.148.382.249.818.279 1.457l.018.427.003.116c.011.438.016.875.014 1.313v1.234c.002.437-.002.875-.013 1.313l-.004.116c-.005.135-.01.267-.018.427-.03.639-.132 1.074-.28 1.457-.15.4-.386.763-.691 1.063-.3.305-.663.54-1.063.692-.382.148-.818.248-1.456.279-.16.007-.293.013-.428.017l-.116.004c-.438.01-.875.015-1.313.014h-1.233a47.97 47.97 0 0 1-1.314-.013l-.116-.004a38.004 38.004 0 0 1-.427-.018c-.638-.03-1.074-.132-1.457-.28-.4-.15-.763-.386-1.062-.691a2.942 2.942 0 0 1-.693-1.063c-.148-.383-.249-.818-.279-1.457a44.386 44.386 0 0 1-.018-.427l-.003-.116A47.364 47.364 0 0 1 7 14.127v-1.234c-.001-.438.003-.875.014-1.313l.004-.116c.005-.135.01-.268.018-.427.03-.64.13-1.074.279-1.457.15-.4.387-.763.693-1.062a2.94 2.94 0 0 1 1.062-.693c.383-.148.818-.25 1.457-.28l.427-.017.116-.003a47.48 47.48 0 0 1 1.313-.015h1.234Zm-.617 3a3 3 0 1 0 0 6 3 3 0 0 0 0-6Zm0 1.2a1.8 1.8 0 1 1 0 3.6 1.8 1.8 0 0 1 0-3.6Zm3.15-2.1a.75.75 0 0 0 0 1.5.75.75 0 0 0 0-1.5Z"/>
</svg>
