<svg xmlns="http://www.w3.org/2000/svg" width="25" height="26" fill="none" viewBox="0 0 25 26">
  <circle cx="12.5" cy="13.01" r="12.5" fill="#E9E9E9"/>
  <path fill="#969798" d="M17.667 7.51A1.333 1.333 0 0 1 19 8.843v9.333a1.333 1.333 0 0 1-1.333 1.334H8.333A1.333 1.333 0 0 1 7 18.176V8.843A1.333 1.333 0 0 1 8.333 7.51h9.334Zm-.334 10.333V14.31a2.173 2.173 0 0 0-2.173-2.174c-.567 0-1.227.347-1.547.867v-.74h-1.86v5.58h1.86v-3.287a.93.93 0 1 1 1.86 0v3.287h1.86Zm-7.746-6.627a1.12 1.12 0 0 0 1.12-1.12 1.124 1.124 0 1 0-1.12 1.12Zm.926 6.627v-5.58H8.667v5.58h1.846Z"/>
</svg>
