<svg xmlns="http://www.w3.org/2000/svg" width="60" height="60" fill="none" viewBox="0 0 60 60">
  <circle cx="30" cy="30" r="30" fill="#FFE8CE"/>
  <path stroke="#854B06" stroke-linecap="round" stroke-linejoin="round" stroke-width="2" d="M26 24v6m7-6v6m-13 0h19.6M36 36h3s.5-1.7.8-2.8c.1-.4.2-.8.2-1.2 0-.4-.1-.8-.2-1.2l-1.4-5c-.3-1-1.3-1.8-2.4-1.8H22a2 2 0 0 0-2 2v10h3"/>
  <path stroke="#854B06" stroke-linecap="round" stroke-linejoin="round" stroke-width="2" d="M25 38a2 2 0 1 0 0-4 2 2 0 0 0 0 4Zm2-2h5m2 2a2 2 0 1 0 0-4 2 2 0 0 0 0 4Z"/>
</svg>
