<svg xmlns="http://www.w3.org/2000/svg" width="60" height="60" fill="none" viewBox="0 0 60 60">
  <circle cx="30" cy="30" r="30" fill="#FEF3C7"/>
  <mask id="a" fill="#fff">
    <path d="M31.714 36.3H30v-1.8c0-.716-.272-1.402-.754-1.908a2.514 2.514 0 0 0-1.817-.792H24c-.682 0-1.335.285-1.817.792a2.773 2.773 0 0 0-.754 1.908v1.8h-1.715v-1.8a4.622 4.622 0 0 1 1.257-3.18A4.19 4.19 0 0 1 24 30h3.429a4.19 4.19 0 0 1 3.029 1.32 4.622 4.622 0 0 1 1.256 3.18v1.8Zm-6-15.3c.509 0 1.006.158 1.429.455.423.297.752.718.947 1.212.195.493.245 1.036.146 1.56a2.744 2.744 0 0 1-.703 1.382c-.36.378-.818.635-1.317.74a2.458 2.458 0 0 1-1.486-.154 2.604 2.604 0 0 1-1.154-.995 2.798 2.798 0 0 1-.433-1.5c0-.716.27-1.403.753-1.91a2.511 2.511 0 0 1 1.818-.79Zm0-1.8c-.847 0-1.676.264-2.38.758a4.46 4.46 0 0 0-1.58 2.02 4.71 4.71 0 0 0-.243 2.6 4.575 4.575 0 0 0 1.173 2.304 4.22 4.22 0 0 0 2.194 1.231 4.096 4.096 0 0 0 2.476-.255 4.338 4.338 0 0 0 1.924-1.658c.47-.74.722-1.61.722-2.5a4.616 4.616 0 0 0-1.255-3.182 4.185 4.185 0 0 0-3.03-1.318ZM18 39h24v1.8H18V39Zm17.143-19.8V21h3.93l-5.644 5.927L34.64 28.2l5.645-5.927V26.4H42v-7.2h-6.857Z"/>
  </mask>
  <path fill="#FEF3C7" d="M31.714 36.3H30v-1.8c0-.716-.272-1.402-.754-1.908a2.514 2.514 0 0 0-1.817-.792H24c-.682 0-1.335.285-1.817.792a2.773 2.773 0 0 0-.754 1.908v1.8h-1.715v-1.8a4.622 4.622 0 0 1 1.257-3.18A4.19 4.19 0 0 1 24 30h3.429a4.19 4.19 0 0 1 3.029 1.32 4.622 4.622 0 0 1 1.256 3.18v1.8Zm-6-15.3c.509 0 1.006.158 1.429.455.423.297.752.718.947 1.212.195.493.245 1.036.146 1.56a2.744 2.744 0 0 1-.703 1.382c-.36.378-.818.635-1.317.74a2.458 2.458 0 0 1-1.486-.154 2.604 2.604 0 0 1-1.154-.995 2.798 2.798 0 0 1-.433-1.5c0-.716.27-1.403.753-1.91a2.511 2.511 0 0 1 1.818-.79Zm0-1.8c-.847 0-1.676.264-2.38.758a4.46 4.46 0 0 0-1.58 2.02 4.71 4.71 0 0 0-.243 2.6 4.575 4.575 0 0 0 1.173 2.304 4.22 4.22 0 0 0 2.194 1.231 4.096 4.096 0 0 0 2.476-.255 4.338 4.338 0 0 0 1.924-1.658c.47-.74.722-1.61.722-2.5a4.616 4.616 0 0 0-1.255-3.182 4.185 4.185 0 0 0-3.03-1.318ZM18 39h24v1.8H18V39Zm17.143-19.8V21h3.93l-5.644 5.927L34.64 28.2l5.645-5.927V26.4H42v-7.2h-6.857Z"/>
  <path fill="#78340F" d="M31.714 36.3v2h2v-2h-2ZM30 36.3h-2v2h2v-2Zm0-1.8h2v-.002l-2 .002Zm-2.571-2.7.002-2h-.002v2ZM24 31.8v-2h-.002l.002 2Zm-2.571 2.7-2-.002v.002h2Zm0 1.8v2h2v-2h-2Zm-1.715 0h-2v2h2v-2Zm0-1.8-2-.002v.002h2ZM24 30v-2h-.003L24 30Zm3.429 0 .002-2h-.002v2Zm4.285 4.5h2v-.002l-2 .002Zm-8.571-10.8h-2 2Zm6.857 0h2-2ZM18 39v-2h-2v2h2Zm24 0h2v-2h-2v2Zm0 1.8v2h2v-2h-2Zm-24 0h-2v2h2v-2Zm17.143-21.6v-2h-2v2h2Zm0 1.8h-2v2h2v-2Zm3.93 0 1.449 1.38L43.74 19h-4.666v2Zm-5.644 5.927-1.449-1.379-1.313 1.38 1.313 1.379 1.449-1.38ZM34.64 28.2l-1.449 1.38 1.449 1.52 1.448-1.52-1.448-1.38Zm5.645-5.927h2v-5l-3.449 3.62 1.449 1.38Zm0 4.127h-2v2h2v-2Zm1.714 0v2h2v-2h-2Zm0-7.2h2v-2h-2v2ZM31.714 34.3H30v4h1.714v-4Zm.286 2v-1.8h-4v1.8h4Zm0-1.802a4.773 4.773 0 0 0-1.306-3.286l-2.896 2.759a.774.774 0 0 1 .202.53l4-.003Zm-1.306-3.286a4.513 4.513 0 0 0-3.263-1.412l-.005 4c.12 0 .256.05.372.17l2.896-2.758ZM27.43 29.8H24v4h3.429v-4Zm-3.431 0a4.513 4.513 0 0 0-3.264 1.412l2.897 2.759a.515.515 0 0 1 .371-.171l-.004-4Zm-3.264 1.412a4.772 4.772 0 0 0-1.305 3.286l4 .004c0-.217.083-.406.202-.531l-2.897-2.759ZM19.43 34.5v1.8h4v-1.8h-4Zm2-.2h-1.715v4h1.715v-4Zm.285 2v-1.8h-4v1.8h4Zm0-1.798c.001-.694.265-1.34.705-1.803l-2.896-2.759a6.622 6.622 0 0 0-1.809 4.558l4 .004Zm.705-1.803A2.19 2.19 0 0 1 24.003 32l-.006-4a6.19 6.19 0 0 0-4.474 1.94l2.896 2.759ZM24 32h3.429v-4H24v4Zm3.426 0c.574 0 1.146.24 1.583.699l2.897-2.759A6.19 6.19 0 0 0 27.43 28l-.005 4Zm1.583.699c.44.462.704 1.11.705 1.803l4-.004a6.622 6.622 0 0 0-1.808-4.558l-2.897 2.76Zm.705 1.801v1.8h4v-1.8h-4Zm-4-11.5c.09 0 .188.028.28.092l2.298-3.274A4.485 4.485 0 0 0 25.714 19v4Zm.28.092c.094.066.18.17.236.309l3.72-1.468a4.676 4.676 0 0 0-1.658-2.115l-2.298 3.274Zm.236.309a.83.83 0 0 1 .041.454l3.93.744c.17-.893.084-1.82-.25-2.666L26.23 23.4Zm.041.454a.746.746 0 0 1-.187.375l2.897 2.758A4.744 4.744 0 0 0 30.2 24.6l-3.93-.744Zm-.187.375a.537.537 0 0 1-.277.16l.818 3.916a4.536 4.536 0 0 0 2.356-1.318l-2.897-2.758Zm-.277.16a.458.458 0 0 1-.28-.03l-1.594 3.669a4.458 4.458 0 0 0 2.692.277l-.818-3.916Zm-.28-.03a.604.604 0 0 1-.264-.234l-3.374 2.148a4.602 4.602 0 0 0 2.044 1.755l1.595-3.669Zm-.264-.234a.798.798 0 0 1-.12-.426h-4c0 .909.256 1.804.746 2.574l3.375-2.148Zm-.12-.426c0-.216.083-.405.201-.53l-2.896-2.759a4.77 4.77 0 0 0-1.305 3.289h4Zm.201-.53a.512.512 0 0 1 .37-.17v-4a4.51 4.51 0 0 0-3.266 1.412l2.896 2.758Zm.37-5.97a6.142 6.142 0 0 0-3.53 1.121l2.298 3.275a2.143 2.143 0 0 1 1.232-.396v-4Zm-3.53 1.121a6.46 6.46 0 0 0-2.29 2.923l3.721 1.468a2.46 2.46 0 0 1 .867-1.116l-2.297-3.275Zm-2.29 2.923a6.71 6.71 0 0 0-.348 3.706l3.93-.744a2.709 2.709 0 0 1 .14-1.494l-3.722-1.468Zm-.348 3.706a6.573 6.573 0 0 0 1.69 3.311l2.896-2.758a2.574 2.574 0 0 1-.656-1.297l-3.93.744Zm1.69 3.311a6.226 6.226 0 0 0 3.233 1.81l.818-3.915a2.227 2.227 0 0 1-1.155-.653l-2.896 2.758Zm3.233 1.81a6.096 6.096 0 0 0 3.683-.38l-1.595-3.668a2.097 2.097 0 0 1-1.27.133l-.818 3.915Zm3.683-.38a6.338 6.338 0 0 0 2.813-2.417l-3.375-2.148c-.263.414-.626.72-1.033.897l1.595 3.669Zm2.813-2.417A6.662 6.662 0 0 0 32 23.7h-4c0 .516-.146 1.012-.41 1.426l3.375 2.148ZM32 23.7c0-1.693-.64-3.336-1.807-4.561l-2.896 2.758c.44.463.703 1.11.703 1.803h4Zm-1.807-4.561a6.185 6.185 0 0 0-4.479-1.939v4c.574 0 1.145.239 1.583.697l2.896-2.758ZM18 41h24v-4H18v4Zm22-2v1.8h4V39h-4Zm2-.2H18v4h24v-4Zm-22 2V39h-4v1.8h4Zm13.143-21.6V21h4v-1.8h-4Zm2 3.8h3.93v-4h-3.93v4Zm2.482-3.38-5.645 5.928 2.897 2.759 5.645-5.928-2.897-2.758Zm-5.645 8.687 1.212 1.272 2.897-2.758-1.212-1.273-2.897 2.759Zm4.109 1.272 5.645-5.927-2.897-2.759-5.645 5.928 2.897 2.758Zm2.197-7.306V26.4h4v-4.127h-4Zm2 6.127H42v-4h-1.714v4Zm3.714-2v-7.2h-4v7.2h4Zm-2-9.2h-6.857v4H42v-4Z" mask="url(#a)"/>
</svg>
