<svg xmlns="http://www.w3.org/2000/svg" width="60" height="60" fill="none" viewBox="0 0 60 60">
  <circle cx="30" cy="30" r="30" fill="#EAFED6"/>
  <path fill="#478707" fill-rule="evenodd" d="M22.5 21.75a.75.75 0 0 0-.75.75v15a.75.75 0 0 0 .75.75h7.875a1.125 1.125 0 1 1 0 2.25H22.5a3 3 0 0 1-3-3v-15a3 3 0 0 1 3-3h15a3 3 0 0 1 3 3v9.375a1.125 1.125 0 1 1-2.25 0V22.5a.75.75 0 0 0-.75-.75h-15Zm18.42 13.08a1.125 1.125 0 0 1 0 1.59l-3.75 3.75a1.125 1.125 0 0 1-1.59 0l-1.5-1.5a1.126 1.126 0 1 1 1.59-1.59l.705.705 2.955-2.955a1.125 1.125 0 0 1 1.59 0ZM25.125 24a1.125 1.125 0 1 0 0 2.25h9.75a1.125 1.125 0 1 0 0-2.25h-9.75ZM24 30a1.125 1.125 0 0 1 1.125-1.125h9.75a1.125 1.125 0 1 1 0 2.25h-9.75A1.125 1.125 0 0 1 24 30Zm1.125 3.75a1.125 1.125 0 1 0 0 2.25h5.25a1.125 1.125 0 1 0 0-2.25h-5.25Z" clip-rule="evenodd"/>
</svg>
