<svg xmlns="http://www.w3.org/2000/svg" width="61" height="61" fill="none" viewBox="0 0 61 61">
  <circle cx="30.5" cy="30.5" r="30" fill="#F6FCCB"/>
  <path fill="#F6FCCB" stroke="#353B0F" d="M26.4 28.7v.5h8.2v-2.8h-8.2v2.3Zm-.683-2.983A.4.4 0 0 1 26 25.6h9a.4.4 0 0 1 .4.4v3.6a.4.4 0 0 1-.4.4h-9a.4.4 0 0 1-.4-.4V26a.4.4 0 0 1 .117-.283Zm-4.345-4.345A4 4 0 0 1 24.2 20.2h12.6a4 4 0 0 1 4 4v12.6a4 4 0 0 1-4 4H24.2a4 4 0 0 1-4-4V24.2a4 4 0 0 1 1.172-2.828Zm.565.565A3.2 3.2 0 0 0 21 24.2v12.6a3.2 3.2 0 0 0 3.2 3.2h12.6a3.2 3.2 0 0 0 3.2-3.2V24.2a3.2 3.2 0 0 0-3.2-3.2H24.2a3.2 3.2 0 0 0-2.263.937Z"/>
</svg>
