<svg xmlns="http://www.w3.org/2000/svg" width="60" height="60" fill="none" viewBox="0 0 60 60">
  <circle cx="30" cy="30" r="30" fill="#D5FFEB"/>
  <g clip-path="url(#a)">
    <mask id="b" width="22" height="22" x="18.954" y="18.98" fill="#000" maskUnits="userSpaceOnUse">
      <path fill="#fff" d="M18.954 18.98h22v22h-22z"/>
      <path d="M25.392 19.995h.212l.118-.001h.393l.28-.002.845-.001h.398c.44-.002.88-.002 1.32-.002h.431l1.38-.003a557.985 557.985 0 0 1 2.214-.004 133.438 133.438 0 0 1 1.024-.001h.375l.11-.001c.165.001.252.006.394.094.13.14.12.229.119.416v.154l-.002.162v.162l-.002.4.118.026a39.2 39.2 0 0 1 1.33.336l.22.058a385.402 385.402 0 0 1 1.037.278l.453.12.214.058c1.105.294 1.105.294 1.276.49.161.322-.097.915-.185 1.243l-.06.226c-.134.508-.272 1.015-.409 1.522l-.084.313-.057.209-.028.104a340.68 340.68 0 0 1-.277 1.022l-.051.187-.07.257-.04.147c-.033.126-.033.126-.028.278.087.065.168.118.262.171a36.793 36.793 0 0 1 .264.159c.182.111.359.229.536.347l.107.069.1.067.09.058c.269.204.269.204.3.34.007.1.008.198.007.297v2.216c0 .463 0 .926-.002 1.389V34.7a551.291 551.291 0 0 1-.002 2.971v.268c.002.584-.01 1.055-.412 1.513l-.059.072a1.55 1.55 0 0 1-.839.475 7.202 7.202 0 0 1-.38.005h-.297l-.215.001a389.932 389.932 0 0 1-1.231.002l-1.543.001h-.726c-.804.002-1.609.002-2.413.002H31.2l-2.523.003a1824.777 1824.777 0 0 1-4.122.004 393.177 393.177 0 0 1-1.87.001 85.842 85.842 0 0 1-.787 0c-.525.004-.945-.052-1.352-.41l-.072-.059c-.25-.225-.457-.576-.48-.918v-.085l-.002-.1v-.222l-.003-.384-.002-.274a674.319 674.319 0 0 1-.01-2.84v-.083l-.007-1.35c-.003-.46-.005-.922-.006-1.384 0-.26 0-.519-.003-.778a59.434 59.434 0 0 1-.003-.731l-.001-.268c-.01-.676-.01-.676.118-.878a1.22 1.22 0 0 1 .276-.192l.147-.101a53.266 53.266 0 0 0 .306-.185l.085-.052c.154-.095.306-.194.458-.292l.088-.058.205-.133a3.943 3.943 0 0 0-.112-.604l-.022-.083-.072-.27-.051-.193a270.244 270.244 0 0 0-.25-.934c-.168-.63-.337-1.26-.511-1.89l-.035-.123-.15-.538-.052-.184-.023-.08a1.322 1.322 0 0 1-.05-.53c.133-.197.23-.267.464-.332l.082-.023c.09-.026.182-.05.274-.075l.201-.056a80.522 80.522 0 0 1 .938-.253l.523-.14.67-.18.518-.138.248-.067.344-.092.104-.027c.234-.063.234-.063.321-.063l-.003-.1a41.98 41.98 0 0 1-.009-.534 14.943 14.943 0 0 1-.003-.232l-.003-.14c.021-.152.069-.214.174-.322.09-.044.138-.044.236-.044Zm.467.864c-.03 2.073-.03 2.073-.051 4.146l-.006.84-.001.106c-.005.565-.013 1.13-.023 1.695-.01.58-.016 1.161-.018 1.742a54.11 54.11 0 0 1-.014 1.073c-.006.246-.008.492-.006.738 0 .142 0 .283-.006.425-.031.595-.031.595.228 1.107.246.216.533.372.823.522.184.096.356.208.53.321l.178.112c.174.11.345.223.516.338.26.174.52.344.783.513.196.127.39.257.582.39l.112.078.212.15.096.066.084.06c.085.042.085.042.182.004a2.352 2.352 0 0 0 .318-.194l.086-.06.19-.127.101-.069c.177-.118.356-.234.534-.35l.23-.15.118-.077.629-.41a465.714 465.714 0 0 1 .875-.572l.222-.144c.066-.043.132-.088.197-.133.112-.07.112-.07.233-.112.151-.064.262-.129.348-.27.088-.331.06-.69.054-1.03-.002-.144-.001-.288 0-.432 0-.25-.002-.499-.005-.748-.004-.36-.005-.721-.005-1.082-.001-.585-.005-1.17-.009-1.755-.004-.568-.008-1.136-.01-1.704v-.108l-.003-.83c-.004-1.356-.014-2.712-.022-4.069h-8.282ZM35 22.266v.82a10.785 10.785 0 0 0 .82.245 38.59 38.59 0 0 0 .505.136l.15.04a.53.53 0 0 1 .283.204c.03.153.04.284.036.44a.397.397 0 0 0 .081.263c.1.064.1.064.215.117.198.096.198.096.267.183.093.326-.028.651-.114.966a98.345 98.345 0 0 0-.135.504c-.04.144-.078.29-.117.435a79.301 79.301 0 0 1-.133.496l-.06.224-.035.129a.557.557 0 0 1-.2.266c-.202.046-.36.064-.547-.039-.169-.3-.019-.69.067-.998l.031-.115a106.715 106.715 0 0 1 .23-.84l.03-.11c.01-.033.02-.067.029-.103l.025-.09a.958.958 0 0 0 .017-.283c-.063-.09-.063-.09-.149-.17a1.015 1.015 0 0 1-.305-.601c-.039-.128-.039-.128-.121-.166a2.98 2.98 0 0 0-.284-.078l-.227-.066a1.175 1.175 0 0 0-.359-.052v8.008c.156-.062.266-.119.403-.211l.12-.08.124-.085.242-.162.12-.082a36.5 36.5 0 0 1 .384-.255l.115-.076c.17-.118.196-.206.248-.405l.022-.082.073-.276.052-.197a204.929 204.929 0 0 0 .292-1.101l.062-.232a264.908 264.908 0 0 0 .126-.476 629.881 629.881 0 0 1 .798-2.973l.115-.425.053-.195.049-.183.047-.174c.04-.152.083-.303.127-.454l.028-.097.055-.184c.041-.145.062-.24.017-.384l-1.42-.382-.658-.177-.635-.171-.243-.066a212.7 212.7 0 0 0-.339-.09l-.102-.028c-.136-.043-.136-.043-.275-.062Zm-10.33.077-.093.024-.305.082-.213.057a917.702 917.702 0 0 0-1.015.273l-.545.147-.104.027c-.356.096-.712.192-1.067.29-.058.153-.019.266.024.42l.021.081.075.268.052.193.114.417.182.663.062.228.032.116.097.355c.237.867.47 1.734.703 2.602l.159.59.197.736.05.182c.038.142.075.285.11.428l.02.082.053.217c.073.205.21.285.393.39l.14.088.235.147c.232.142.456.295.677.452.126.1.126.1.276.133v-8.008c-.218.028-.41.058-.62.113l-.078.019c-.147.038-.192.05-.279.18-.016.06-.032.121-.046.182-.069.241-.21.456-.41.612-.062.064-.062.064-.044.157l.03.108.034.122a300.265 300.265 0 0 0 .076.27l.121.432a68.516 68.516 0 0 1 .197.7c.065.238.1.418.042.66-.08.116-.133.149-.266.193a.684.684 0 0 1-.398-.115 1.239 1.239 0 0 1-.188-.435l-.038-.143-.04-.155-.042-.16c-.03-.111-.058-.223-.087-.334a63.977 63.977 0 0 1-.239-.914c-.138-.52-.138-.52-.069-.788.086-.088.086-.088.196-.157.178-.113.178-.113.312-.273a3.65 3.65 0 0 0 .02-.252c.014-.306.014-.306.097-.412.197-.094.396-.157.607-.213l.093-.025a96.458 96.458 0 0 1 .768-.209c.137-.029.137-.029.251-.1.003-.061.004-.122.004-.183v-.112a41.833 41.833 0 0 1-.004-.525c-.109 0-.226.048-.33.077Zm13.377 6.759a77.225 77.225 0 0 0-.18.615l-.037.132-.036.122c-.03.116-.03.116.019.263l.937-.625a2.55 2.55 0 0 0-.44-.363c-.04-.028-.082-.055-.125-.083-.085-.065-.085-.065-.138-.061Zm-16.47.227-.084.053-.078.052-.073.048-.053.05v.116c.085.072.085.072.197.14l.122.079.13.082.13.083.32.202c.05-.142.026-.234-.017-.376l-.038-.127-.04-.131a85.312 85.312 0 0 0-.14-.46c-.143 0-.26.111-.376.189Zm17.365 1.189-.126.083-.137.09-.14.092-.211.139c-.203.133-.405.265-.608.396l-.095.062-.187.121-.293.19a457.184 457.184 0 0 1-1.727 1.122l-.52.336-.108.07-.206.132-.093.06-.082.053c-.072.05-.13.106-.19.169l.095.086c.297.273.587.551.871.837l.13.13.274.275a594.2 594.2 0 0 0 1.354 1.357 2353.021 2353.021 0 0 0 1.822 1.826l.17.17.095.096c.06.071.06.071.11.067.045-.408.045-.813.044-1.222v-1.47l-.002-1.203V33.21l-.002-2.82c-.084 0-.172.085-.238.128ZM20.86 30.43v8.047c.177-.152.337-.295.497-.46a3.96 3.96 0 0 1 .226-.204c.202-.177.391-.367.58-.557l.12-.12.32-.32.336-.336.634-.635.723-.724 1.486-1.488a2.178 2.178 0 0 0-.464-.366 29.834 29.834 0 0 1-.796-.506l-.116-.076-.23-.151-.51-.332-.192-.124-.095-.062-.296-.192c-.33-.216-.662-.43-.994-.645l-.46-.3c-.035-.023-.07-.047-.107-.07l-.205-.136-.095-.062-.083-.055c-.099-.06-.099-.06-.279-.126Zm5.45 3.836-.07.072-.074.074a114.208 114.208 0 0 0-.542.544l-.07.07a7.16 7.16 0 0 0-.324.351c-.16.184-.332.356-.505.528l-.104.104-.28.28-.293.293-.554.553-.632.631-1.299 1.297.04.078h16.875c-.19-.223-.19-.223-.39-.433l-.086-.086-.092-.092-.099-.098a419.253 419.253 0 0 0-.546-.544l-.709-.708a1383.182 1383.182 0 0 1-1.153-1.15l-.201-.2-.093-.093-.085-.085-.074-.073c-.066-.071-.066-.071-.129-.158l-.054-.07h-.078l-.033-.07a.785.785 0 0 0-.155-.204l-.066-.066-.072-.07-.073-.073-.231-.23-.157-.155-.385-.381a2.43 2.43 0 0 0-.484.26c-.028.02-.057.038-.087.058l-.189.124-.307.2a458.722 458.722 0 0 0-1.884 1.234l-.076.05-.187.126a.75.75 0 0 1-.341.096c-.493-.16-.938-.525-1.362-.813l-.425-.286-.104-.07c-.26-.175-.524-.343-.79-.507a13.6 13.6 0 0 1-.533-.353c-.218-.148-.25-.141-.437.045Z"/>
    </mask>
    <path fill="#054A29" d="M25.392 19.995h.212l.118-.001h.393l.28-.002.845-.001h.398c.44-.002.88-.002 1.32-.002h.431l1.38-.003a557.985 557.985 0 0 1 2.214-.004 133.438 133.438 0 0 1 1.024-.001h.375l.11-.001c.165.001.252.006.394.094.13.14.12.229.119.416v.154l-.002.162v.162l-.002.4.118.026a39.2 39.2 0 0 1 1.33.336l.22.058a385.402 385.402 0 0 1 1.037.278l.453.12.214.058c1.105.294 1.105.294 1.276.49.161.322-.097.915-.185 1.243l-.06.226c-.134.508-.272 1.015-.409 1.522l-.084.313-.057.209-.028.104a340.68 340.68 0 0 1-.277 1.022l-.051.187-.07.257-.04.147c-.033.126-.033.126-.028.278.087.065.168.118.262.171a36.793 36.793 0 0 1 .264.159c.182.111.359.229.536.347l.107.069.1.067.09.058c.269.204.269.204.3.34.007.1.008.198.007.297v2.216c0 .463 0 .926-.002 1.389V34.7a551.291 551.291 0 0 1-.002 2.971v.268c.002.584-.01 1.055-.412 1.513l-.059.072a1.55 1.55 0 0 1-.839.475 7.202 7.202 0 0 1-.38.005h-.297l-.215.001a389.932 389.932 0 0 1-1.231.002l-1.543.001h-.726c-.804.002-1.609.002-2.413.002H31.2l-2.523.003a1824.777 1824.777 0 0 1-4.122.004 393.177 393.177 0 0 1-1.87.001 85.842 85.842 0 0 1-.787 0c-.525.004-.945-.052-1.352-.41l-.072-.059c-.25-.225-.457-.576-.48-.918v-.085l-.002-.1v-.222l-.003-.384-.002-.274a674.319 674.319 0 0 1-.01-2.84v-.083l-.007-1.35c-.003-.46-.005-.922-.006-1.384 0-.26 0-.519-.003-.778a59.434 59.434 0 0 1-.003-.731l-.001-.268c-.01-.676-.01-.676.118-.878a1.22 1.22 0 0 1 .276-.192l.147-.101a53.266 53.266 0 0 0 .306-.185l.085-.052c.154-.095.306-.194.458-.292l.088-.058.205-.133a3.943 3.943 0 0 0-.112-.604l-.022-.083-.072-.27-.051-.193a270.244 270.244 0 0 0-.25-.934c-.168-.63-.337-1.26-.511-1.89l-.035-.123-.15-.538-.052-.184-.023-.08a1.322 1.322 0 0 1-.05-.53c.133-.197.23-.267.464-.332l.082-.023c.09-.026.182-.05.274-.075l.201-.056a80.522 80.522 0 0 1 .938-.253l.523-.14.67-.18.518-.138.248-.067.344-.092.104-.027c.234-.063.234-.063.321-.063l-.003-.1a41.98 41.98 0 0 1-.009-.534 14.943 14.943 0 0 1-.003-.232l-.003-.14c.021-.152.069-.214.174-.322.09-.044.138-.044.236-.044Zm.467.864c-.03 2.073-.03 2.073-.051 4.146l-.006.84-.001.106c-.005.565-.013 1.13-.023 1.695-.01.58-.016 1.161-.018 1.742a54.11 54.11 0 0 1-.014 1.073c-.006.246-.008.492-.006.738 0 .142 0 .283-.006.425-.031.595-.031.595.228 1.107.246.216.533.372.823.522.184.096.356.208.53.321l.178.112c.174.11.345.223.516.338.26.174.52.344.783.513.196.127.39.257.582.39l.112.078.212.15.096.066.084.06c.085.042.085.042.182.004a2.352 2.352 0 0 0 .318-.194l.086-.06.19-.127.101-.069c.177-.118.356-.234.534-.35l.23-.15.118-.077.629-.41a465.714 465.714 0 0 1 .875-.572l.222-.144c.066-.043.132-.088.197-.133.112-.07.112-.07.233-.112.151-.064.262-.129.348-.27.088-.331.06-.69.054-1.03-.002-.144-.001-.288 0-.432 0-.25-.002-.499-.005-.748-.004-.36-.005-.721-.005-1.082-.001-.585-.005-1.17-.009-1.755-.004-.568-.008-1.136-.01-1.704v-.108l-.003-.83c-.004-1.356-.014-2.712-.022-4.069h-8.282ZM35 22.266v.82a10.785 10.785 0 0 0 .82.245 38.59 38.59 0 0 0 .505.136l.15.04a.53.53 0 0 1 .283.204c.03.153.04.284.036.44a.397.397 0 0 0 .081.263c.1.064.1.064.215.117.198.096.198.096.267.183.093.326-.028.651-.114.966a98.345 98.345 0 0 0-.135.504c-.04.144-.078.29-.117.435a79.301 79.301 0 0 1-.133.496l-.06.224-.035.129a.557.557 0 0 1-.2.266c-.202.046-.36.064-.547-.039-.169-.3-.019-.69.067-.998l.031-.115a106.715 106.715 0 0 1 .23-.84l.03-.11c.01-.033.02-.067.029-.103l.025-.09a.958.958 0 0 0 .017-.283c-.063-.09-.063-.09-.149-.17a1.015 1.015 0 0 1-.305-.601c-.039-.128-.039-.128-.121-.166a2.98 2.98 0 0 0-.284-.078l-.227-.066a1.175 1.175 0 0 0-.359-.052v8.008c.156-.062.266-.119.403-.211l.12-.08.124-.085.242-.162.12-.082a36.5 36.5 0 0 1 .384-.255l.115-.076c.17-.118.196-.206.248-.405l.022-.082.073-.276.052-.197a204.929 204.929 0 0 0 .292-1.101l.062-.232a264.908 264.908 0 0 0 .126-.476 629.881 629.881 0 0 1 .798-2.973l.115-.425.053-.195.049-.183.047-.174c.04-.152.083-.303.127-.454l.028-.097.055-.184c.041-.145.062-.24.017-.384l-1.42-.382-.658-.177-.635-.171-.243-.066a212.7 212.7 0 0 0-.339-.09l-.102-.028c-.136-.043-.136-.043-.275-.062Zm-10.33.077-.093.024-.305.082-.213.057a917.702 917.702 0 0 0-1.015.273l-.545.147-.104.027c-.356.096-.712.192-1.067.29-.058.153-.019.266.024.42l.021.081.075.268.052.193.114.417.182.663.062.228.032.116.097.355c.237.867.47 1.734.703 2.602l.159.59.197.736.05.182c.038.142.075.285.11.428l.02.082.053.217c.073.205.21.285.393.39l.14.088.235.147c.232.142.456.295.677.452.126.1.126.1.276.133v-8.008c-.218.028-.41.058-.62.113l-.078.019c-.147.038-.192.05-.279.18-.016.06-.032.121-.046.182-.069.241-.21.456-.41.612-.062.064-.062.064-.044.157l.03.108.034.122a300.265 300.265 0 0 0 .076.27l.121.432a68.516 68.516 0 0 1 .197.7c.065.238.1.418.042.66-.08.116-.133.149-.266.193a.684.684 0 0 1-.398-.115 1.239 1.239 0 0 1-.188-.435l-.038-.143-.04-.155-.042-.16c-.03-.111-.058-.223-.087-.334a63.977 63.977 0 0 1-.239-.914c-.138-.52-.138-.52-.069-.788.086-.088.086-.088.196-.157.178-.113.178-.113.312-.273a3.65 3.65 0 0 0 .02-.252c.014-.306.014-.306.097-.412.197-.094.396-.157.607-.213l.093-.025a96.458 96.458 0 0 1 .768-.209c.137-.029.137-.029.251-.1.003-.061.004-.122.004-.183v-.112a41.833 41.833 0 0 1-.004-.525c-.109 0-.226.048-.33.077Zm13.377 6.759a77.225 77.225 0 0 0-.18.615l-.037.132-.036.122c-.03.116-.03.116.019.263l.937-.625a2.55 2.55 0 0 0-.44-.363c-.04-.028-.082-.055-.125-.083-.085-.065-.085-.065-.138-.061Zm-16.47.227-.084.053-.078.052-.073.048-.053.05v.116c.085.072.085.072.197.14l.122.079.13.082.13.083.32.202c.05-.142.026-.234-.017-.376l-.038-.127-.04-.131a85.312 85.312 0 0 0-.14-.46c-.143 0-.26.111-.376.189Zm17.365 1.189-.126.083-.137.09-.14.092-.211.139c-.203.133-.405.265-.608.396l-.095.062-.187.121-.293.19a457.184 457.184 0 0 1-1.727 1.122l-.52.336-.108.07-.206.132-.093.06-.082.053c-.072.05-.13.106-.19.169l.095.086c.297.273.587.551.871.837l.13.13.274.275a594.2 594.2 0 0 0 1.354 1.357 2353.021 2353.021 0 0 0 1.822 1.826l.17.17.095.096c.06.071.06.071.11.067.045-.408.045-.813.044-1.222v-1.47l-.002-1.203V33.21l-.002-2.82c-.084 0-.172.085-.238.128ZM20.86 30.43v8.047c.177-.152.337-.295.497-.46a3.96 3.96 0 0 1 .226-.204c.202-.177.391-.367.58-.557l.12-.12.32-.32.336-.336.634-.635.723-.724 1.486-1.488a2.178 2.178 0 0 0-.464-.366 29.834 29.834 0 0 1-.796-.506l-.116-.076-.23-.151-.51-.332-.192-.124-.095-.062-.296-.192c-.33-.216-.662-.43-.994-.645l-.46-.3c-.035-.023-.07-.047-.107-.07l-.205-.136-.095-.062-.083-.055c-.099-.06-.099-.06-.279-.126Zm5.45 3.836-.07.072-.074.074a114.208 114.208 0 0 0-.542.544l-.07.07a7.16 7.16 0 0 0-.324.351c-.16.184-.332.356-.505.528l-.104.104-.28.28-.293.293-.554.553-.632.631-1.299 1.297.04.078h16.875c-.19-.223-.19-.223-.39-.433l-.086-.086-.092-.092-.099-.098a419.253 419.253 0 0 0-.546-.544l-.709-.708a1383.182 1383.182 0 0 1-1.153-1.15l-.201-.2-.093-.093-.085-.085-.074-.073c-.066-.071-.066-.071-.129-.158l-.054-.07h-.078l-.033-.07a.785.785 0 0 0-.155-.204l-.066-.066-.072-.07-.073-.073-.231-.23-.157-.155-.385-.381a2.43 2.43 0 0 0-.484.26c-.028.02-.057.038-.087.058l-.189.124-.307.2a458.722 458.722 0 0 0-1.884 1.234l-.076.05-.187.126a.75.75 0 0 1-.341.096c-.493-.16-.938-.525-1.362-.813l-.425-.286-.104-.07c-.26-.175-.524-.343-.79-.507a13.6 13.6 0 0 1-.533-.353c-.218-.148-.25-.141-.437.045Z"/>
    <path stroke="#054A29" d="M25.392 19.995h.212l.118-.001h.393l.28-.002.845-.001h.398c.44-.002.88-.002 1.32-.002h.431l1.38-.003a557.985 557.985 0 0 1 2.214-.004 133.438 133.438 0 0 1 1.024-.001h.375l.11-.001c.165.001.252.006.394.094.13.14.12.229.119.416v.154l-.002.162v.162l-.002.4.118.026a39.2 39.2 0 0 1 1.33.336l.22.058a385.402 385.402 0 0 1 1.037.278l.453.12.214.058c1.105.294 1.105.294 1.276.49.161.322-.097.915-.185 1.243l-.06.226c-.134.508-.272 1.015-.409 1.522l-.084.313-.057.209-.028.104a340.68 340.68 0 0 1-.277 1.022l-.051.187-.07.257-.04.147c-.033.126-.033.126-.028.278.087.065.168.118.262.171a36.793 36.793 0 0 1 .264.159c.182.111.359.229.536.347l.107.069.1.067.09.058c.269.204.269.204.3.34.007.1.008.198.007.297v2.216c0 .463 0 .926-.002 1.389V34.7a551.291 551.291 0 0 1-.002 2.971v.268c.002.584-.01 1.055-.412 1.513l-.059.072a1.55 1.55 0 0 1-.839.475 7.202 7.202 0 0 1-.38.005h-.297l-.215.001a389.932 389.932 0 0 1-1.231.002l-1.543.001h-.726c-.804.002-1.609.002-2.413.002H31.2l-2.523.003a1824.777 1824.777 0 0 1-4.122.004 393.177 393.177 0 0 1-1.87.001 85.842 85.842 0 0 1-.787 0c-.525.004-.945-.052-1.352-.41l-.072-.059c-.25-.225-.457-.576-.48-.918v-.085l-.002-.1v-.222l-.003-.384-.002-.274a674.319 674.319 0 0 1-.01-2.84v-.083l-.007-1.35c-.003-.46-.005-.922-.006-1.384 0-.26 0-.519-.003-.778a59.434 59.434 0 0 1-.003-.731l-.001-.268c-.01-.676-.01-.676.118-.878a1.22 1.22 0 0 1 .276-.192l.147-.101a53.266 53.266 0 0 0 .306-.185l.085-.052c.154-.095.306-.194.458-.292l.088-.058.205-.133a3.943 3.943 0 0 0-.112-.604l-.022-.083-.072-.27-.051-.193a270.244 270.244 0 0 0-.25-.934c-.168-.63-.337-1.26-.511-1.89l-.035-.123-.15-.538-.052-.184-.023-.08a1.322 1.322 0 0 1-.05-.53c.133-.197.23-.267.464-.332l.082-.023c.09-.026.182-.05.274-.075l.201-.056a80.522 80.522 0 0 1 .938-.253l.523-.14.67-.18.518-.138.248-.067.344-.092.104-.027c.234-.063.234-.063.321-.063l-.003-.1a41.98 41.98 0 0 1-.009-.534 14.943 14.943 0 0 1-.003-.232l-.003-.14c.021-.152.069-.214.174-.322.09-.044.138-.044.236-.044Zm.467.864c-.03 2.073-.03 2.073-.051 4.146l-.006.84-.001.106c-.005.565-.013 1.13-.023 1.695-.01.58-.016 1.161-.018 1.742a54.11 54.11 0 0 1-.014 1.073c-.006.246-.008.492-.006.738 0 .142 0 .283-.006.425-.031.595-.031.595.228 1.107.246.216.533.372.823.522.184.096.356.208.53.321l.178.112c.174.11.345.223.516.338.26.174.52.344.783.513.196.127.39.257.582.39l.112.078.212.15.096.066.084.06c.085.042.085.042.182.004a2.352 2.352 0 0 0 .318-.194l.086-.06.19-.127.101-.069c.177-.118.356-.234.534-.35l.23-.15.118-.077.629-.41a465.714 465.714 0 0 1 .875-.572l.222-.144c.066-.043.132-.088.197-.133.112-.07.112-.07.233-.112.151-.064.262-.129.348-.27.088-.331.06-.69.054-1.03-.002-.144-.001-.288 0-.432 0-.25-.002-.499-.005-.748-.004-.36-.005-.721-.005-1.082-.001-.585-.005-1.17-.009-1.755-.004-.568-.008-1.136-.01-1.704v-.108l-.003-.83c-.004-1.356-.014-2.712-.022-4.069h-8.282ZM35 22.266v.82a10.785 10.785 0 0 0 .82.245 38.59 38.59 0 0 0 .505.136l.15.04a.53.53 0 0 1 .283.204c.03.153.04.284.036.44a.397.397 0 0 0 .081.263c.1.064.1.064.215.117.198.096.198.096.267.183.093.326-.028.651-.114.966a98.345 98.345 0 0 0-.135.504c-.04.144-.078.29-.117.435a79.301 79.301 0 0 1-.133.496l-.06.224-.035.129a.557.557 0 0 1-.2.266c-.202.046-.36.064-.547-.039-.169-.3-.019-.69.067-.998l.031-.115a106.715 106.715 0 0 1 .23-.84l.03-.11c.01-.033.02-.067.029-.103l.025-.09a.958.958 0 0 0 .017-.283c-.063-.09-.063-.09-.149-.17a1.015 1.015 0 0 1-.305-.601c-.039-.128-.039-.128-.121-.166a2.98 2.98 0 0 0-.284-.078l-.227-.066a1.175 1.175 0 0 0-.359-.052v8.008c.156-.062.266-.119.403-.211l.12-.08.124-.085.242-.162.12-.082a36.5 36.5 0 0 1 .384-.255l.115-.076c.17-.118.196-.206.248-.405l.022-.082.073-.276.052-.197a204.929 204.929 0 0 0 .292-1.101l.062-.232a264.908 264.908 0 0 0 .126-.476 629.881 629.881 0 0 1 .798-2.973l.115-.425.053-.195.049-.183.047-.174c.04-.152.083-.303.127-.454l.028-.097.055-.184c.041-.145.062-.24.017-.384l-1.42-.382-.658-.177-.635-.171-.243-.066a212.7 212.7 0 0 0-.339-.09l-.102-.028c-.136-.043-.136-.043-.275-.062Zm-10.33.077-.093.024-.305.082-.213.057a917.702 917.702 0 0 0-1.015.273l-.545.147-.104.027c-.356.096-.712.192-1.067.29-.058.153-.019.266.024.42l.021.081.075.268.052.193.114.417.182.663.062.228.032.116.097.355c.237.867.47 1.734.703 2.602l.159.59.197.736.05.182c.038.142.075.285.11.428l.02.082.053.217c.073.205.21.285.393.39l.14.088.235.147c.232.142.456.295.677.452.126.1.126.1.276.133v-8.008c-.218.028-.41.058-.62.113l-.078.019c-.147.038-.192.05-.279.18-.016.06-.032.121-.046.182-.069.241-.21.456-.41.612-.062.064-.062.064-.044.157l.03.108.034.122a300.265 300.265 0 0 0 .076.27l.121.432a68.516 68.516 0 0 1 .197.7c.065.238.1.418.042.66-.08.116-.133.149-.266.193a.684.684 0 0 1-.398-.115 1.239 1.239 0 0 1-.188-.435l-.038-.143-.04-.155-.042-.16c-.03-.111-.058-.223-.087-.334a63.977 63.977 0 0 1-.239-.914c-.138-.52-.138-.52-.069-.788.086-.088.086-.088.196-.157.178-.113.178-.113.312-.273a3.65 3.65 0 0 0 .02-.252c.014-.306.014-.306.097-.412.197-.094.396-.157.607-.213l.093-.025a96.458 96.458 0 0 1 .768-.209c.137-.029.137-.029.251-.1.003-.061.004-.122.004-.183v-.112a41.833 41.833 0 0 1-.004-.525c-.109 0-.226.048-.33.077Zm13.377 6.759a77.225 77.225 0 0 0-.18.615l-.037.132-.036.122c-.03.116-.03.116.019.263l.937-.625a2.55 2.55 0 0 0-.44-.363c-.04-.028-.082-.055-.125-.083-.085-.065-.085-.065-.138-.061Zm-16.47.227-.084.053-.078.052-.073.048-.053.05v.116c.085.072.085.072.197.14l.122.079.13.082.13.083.32.202c.05-.142.026-.234-.017-.376l-.038-.127-.04-.131a85.312 85.312 0 0 0-.14-.46c-.143 0-.26.111-.376.189Zm17.365 1.189-.126.083-.137.09-.14.092-.211.139c-.203.133-.405.265-.608.396l-.095.062-.187.121-.293.19a457.184 457.184 0 0 1-1.727 1.122l-.52.336-.108.07-.206.132-.093.06-.082.053c-.072.05-.13.106-.19.169l.095.086c.297.273.587.551.871.837l.13.13.274.275a594.2 594.2 0 0 0 1.354 1.357 2353.021 2353.021 0 0 0 1.822 1.826l.17.17.095.096c.06.071.06.071.11.067.045-.408.045-.813.044-1.222v-1.47l-.002-1.203V33.21l-.002-2.82c-.084 0-.172.085-.238.128ZM20.86 30.43v8.047c.177-.152.337-.295.497-.46a3.96 3.96 0 0 1 .226-.204c.202-.177.391-.367.58-.557l.12-.12.32-.32.336-.336.634-.635.723-.724 1.486-1.488a2.178 2.178 0 0 0-.464-.366 29.834 29.834 0 0 1-.796-.506l-.116-.076-.23-.151-.51-.332-.192-.124-.095-.062-.296-.192c-.33-.216-.662-.43-.994-.645l-.46-.3c-.035-.023-.07-.047-.107-.07l-.205-.136-.095-.062-.083-.055c-.099-.06-.099-.06-.279-.126Zm5.45 3.836-.07.072-.074.074a114.208 114.208 0 0 0-.542.544l-.07.07a7.16 7.16 0 0 0-.324.351c-.16.184-.332.356-.505.528l-.104.104-.28.28-.293.293-.554.553-.632.631-1.299 1.297.04.078h16.875c-.19-.223-.19-.223-.39-.433l-.086-.086-.092-.092-.099-.098a419.253 419.253 0 0 0-.546-.544l-.709-.708a1383.182 1383.182 0 0 1-1.153-1.15l-.201-.2-.093-.093-.085-.085-.074-.073c-.066-.071-.066-.071-.129-.158l-.054-.07h-.078l-.033-.07a.785.785 0 0 0-.155-.204l-.066-.066-.072-.07-.073-.073-.231-.23-.157-.155-.385-.381a2.43 2.43 0 0 0-.484.26c-.028.02-.057.038-.087.058l-.189.124-.307.2a458.722 458.722 0 0 0-1.884 1.234l-.076.05-.187.126a.75.75 0 0 1-.341.096c-.493-.16-.938-.525-1.362-.813l-.425-.286-.104-.07c-.26-.175-.524-.343-.79-.507a13.6 13.6 0 0 1-.533-.353c-.218-.148-.25-.141-.437.045Z" mask="url(#b)"/>
    <path fill="#054A29" stroke="#054A29" stroke-width=".5" d="m32.244 26.317-.005-.004c-.856-.672-1.958-.892-3.006-.694l-.008.001-.008.002c-.988.255-1.815.819-2.353 1.711l-.003.006a3.768 3.768 0 0 0-.347 2.826l.003.011c.278.894.833 1.675 1.69 2.136l.005.003.11.056c.687.361 1.354.422 2.081.387h.007c.889-.066 1.744-.546 2.321-1.193l.005-.005c.646-.763.931-1.727.873-2.708v-.007l-.001-.007a3.777 3.777 0 0 0-1.364-2.52Zm-4.04 1.144-.076.072L30 26.665a2.545 2.545 0 0 0-1.797.796Zm-1.577-3.946a67.143 67.143 0 0 0 .001.863l.182-1.828c-.1.128-.165.224-.184.389v.144m0 .432v-.432m0 .432h-.25v-.432m.25.432h-.25l.001.376c0 .163.002.325.001.486l-.002-1.294m.25 0-.25-.001m.25.001h-.25m0 0v-.159l.002-.014c.027-.236.128-.377.235-.514l.02-.025.025-.02a.767.767 0 0 1 .275-.13 13.676 13.676 0 0 1 .2-.043.195.195 0 0 0 .034-.015s.006-.007.022-.033a.51.51 0 0 0 .019-.107l.001-.01.002-.008a.817.817 0 0 1 .115-.3.927.927 0 0 1 .215-.222l.034-.027.041-.014c.143-.047.24-.056.374-.057l.001.25v-.25h.233l.128-.001.422-.001.292-.001a477.4 477.4 0 0 1 1.243-.002l.761-.002v.25m-4.694 1.455 7.241.068v-.093a1.314 1.314 0 0 0-.06-.442l-.013-.04-.027-.035a.934.934 0 0 0-.223-.215.818.818 0 0 0-.3-.115l-.008-.002-.008-.001a1.081 1.081 0 0 1-.108-.019.188.188 0 0 1-.033-.022.182.182 0 0 1-.016-.033l-.007-.037c-.01-.05-.022-.113-.035-.164a.765.765 0 0 0-.13-.275l-.02-.025-.025-.02-.066-.051c-.229-.184-.444-.185-.638-.186h-.135l-.406.001-.289.001v.25m0 0 .29-.001-2.586.006.293-.001a476.865 476.865 0 0 1 1.243-.002l.76-.002Zm2.55 2.348v-.473l-.001-.09-.243 1.427h.25c0-.126 0-.252-.002-.378a79.016 79.016 0 0 1-.003-.486Zm0 0h-.25.25Zm-5.867-.502c.282-.145.483-.36.652-.592l.023-.032.012-.037.021-.063h3.061a4.234 4.234 0 0 0 .022.05l.006.013.007.012c.147.249.39.508.69.635l-.007.643v.033c0 .13-.002.257-.003.385-.003.137-.005.276-.005.414l-.001.155v.03a3 3 0 0 0 .022.544l.007.043.021.039a.689.689 0 0 0 .425.342l.03.01.032.002.085.006a.663.663 0 0 0 .494-.12l.03-.02.022-.03a.927.927 0 0 0 .227-.484l.003-.019v-.018l-.001-.144m-5.875-1.797 5.875 1.797m-5.875-1.797c.003.238.006.475.007.712.001.14.002.28.005.419l-.012-1.13Zm5.875 1.797v-.001l-.25.001h.25Zm-5.856-.026v.036c0 .16 0 .283-.02.375a.524.524 0 0 1-.165.271l-.02.02-.024.016a.897.897 0 0 1-.298.13 1 1 0 0 1-.315.015l-.046-.004-.041-.02a1.002 1.002 0 0 1-.254-.166.728.728 0 0 1-.182-.283l-.013-.033-.002-.034a2.459 2.459 0 0 1-.012-.285l.25-.002-.25.001v-.079l-.001-.262v-.565l1.393.869Zm0 0v-.005m0 .006v-.005m0 0-.003-.227.003.227Z"/>
    <path fill="#054A29" stroke="#054A29" stroke-width=".5" d="m30.349 23.552-.053-.04-.065-.01a1.205 1.205 0 0 0-.383-.008.651.651 0 0 0-.397.236l-.015.018-.012.021a.865.865 0 0 0-.108.3 1.16 1.16 0 0 0 .006.295l.005.046.02.04a.801.801 0 0 0 .44.39l.037.015.039.004a.954.954 0 0 0 .34-.024.83.83 0 0 0 .311-.173l.035-.03.023-.039a.842.842 0 0 0 .11-.303c.015-.1.006-.198-.003-.291l-.005-.046-.02-.041a.959.959 0 0 0-.305-.36Z"/>
  </g>
  <defs>
    <clipPath id="a">
      <path fill="#fff" d="M20 20h20v20H20z"/>
    </clipPath>
  </defs>
</svg>
