<svg xmlns="http://www.w3.org/2000/svg" width="60" height="60" fill="none" viewBox="0 0 60 60">
  <circle cx="30" cy="30" r="30" fill="#FFE0F8"/>
  <path fill="#71075A" d="M41.25 30a5.249 5.249 0 1 0-9 3.67V39a.75.75 0 0 0 1.086.671L36 38.338l2.664 1.333A.75.75 0 0 0 39.75 39v-5.33a5.233 5.233 0 0 0 1.5-3.67ZM36 26.25a3.75 3.75 0 1 1 0 7.5 3.75 3.75 0 0 1 0-7.5Zm.336 10.579a.75.75 0 0 0-.672 0l-1.914.958v-3.044a5.245 5.245 0 0 0 4.5 0v3.044l-1.914-.958ZM30.75 36a.75.75 0 0 1-.75.75h-8.25a1.5 1.5 0 0 1-1.5-1.5v-12a1.5 1.5 0 0 1 1.5-1.5h16.5a1.5 1.5 0 0 1 1.5 1.5.75.75 0 1 1-1.5 0h-16.5v12H30a.75.75 0 0 1 .75.75Zm-1.5-5.25a.75.75 0 0 1-.75.75h-3.75a.75.75 0 1 1 0-1.5h3.75a.75.75 0 0 1 .75.75Zm0-3a.75.75 0 0 1-.75.75h-3.75a.75.75 0 1 1 0-1.5h3.75a.75.75 0 0 1 .75.75Z"/>
</svg>
