<svg xmlns="http://www.w3.org/2000/svg" width="60" height="60" fill="none" viewBox="0 0 60 60">
  <circle cx="30" cy="30" r="30" fill="#FFCAE1"/>
  <g clip-path="url(#a)">
    <path fill="#B10E53" d="M38.719 30a.843.843 0 0 1-.844.844h-.942a3.662 3.662 0 0 1-3.558 2.812h-2.531v1.125h1.406a2.531 2.531 0 0 1 2.531 2.532.843.843 0 1 1-1.687 0 .843.843 0 0 0-.844-.844h-1.406v.843a.843.843 0 1 1-1.688 0v-.843H27.75a.843.843 0 0 0-.844.843.843.843 0 1 1-1.687 0 2.531 2.531 0 0 1 2.531-2.53h1.406v-1.126h-2.531a3.662 3.662 0 0 1-3.558-2.812h-.942a.843.843 0 1 1 0-1.688h1.688a.843.843 0 0 1 .843.844 1.969 1.969 0 0 0 1.969 1.969h6.75A1.969 1.969 0 0 0 35.344 30a.843.843 0 0 1 .843-.844h1.688a.843.843 0 0 1 .844.844Zm-12.599.352a1.406 1.406 0 0 1-.323-1.125l.955-6.188a1.4 1.4 0 0 1 1.391-1.195h3.714a1.4 1.4 0 0 1 1.391 1.195l.955 6.188a1.406 1.406 0 0 1-1.39 1.617h-5.626a1.406 1.406 0 0 1-1.067-.492Zm1.396-1.196h4.968l-.867-5.625h-3.234l-.867 5.625Z"/>
  </g>
  <defs>
    <clipPath id="a">
      <path fill="#fff" d="M21 21h18v18H21z"/>
    </clipPath>
  </defs>
</svg>
