<svg xmlns="http://www.w3.org/2000/svg" width="60" height="60" fill="none" viewBox="0 0 60 60">
  <circle cx="30" cy="30" r="30" fill="#D2C7FE"/>
  <path fill="#2707A6" d="M33.827 36.788a.651.651 0 0 0 .477-.196.65.65 0 0 0 .196-.477.651.651 0 0 0-.196-.477.65.65 0 0 0-.477-.196.651.651 0 0 0-.477.196.651.651 0 0 0-.196.477.65.65 0 0 0 .196.477c.13.13.29.196.477.196Zm2.173 0a.651.651 0 0 0 .477-.196.65.65 0 0 0 .196-.477.651.651 0 0 0-.196-.477.65.65 0 0 0-.477-.196.651.651 0 0 0-.477.196.651.651 0 0 0-.196.477.65.65 0 0 0 .196.477c.13.13.29.196.477.196Zm2.173 0a.651.651 0 0 0 .477-.196.65.65 0 0 0 .196-.477.651.651 0 0 0-.196-.477.65.65 0 0 0-.477-.196.651.651 0 0 0-.477.196.651.651 0 0 0-.196.477.65.65 0 0 0 .196.477c.13.13.29.196.477.196ZM23.615 38c-.447 0-.828-.157-1.143-.472A1.557 1.557 0 0 1 22 36.385v-12.77c0-.447.157-.828.472-1.143A1.557 1.557 0 0 1 23.615 22h12.77c.447 0 .828.157 1.143.472.315.315.472.696.472 1.143v5.95a5.393 5.393 0 0 0-.504-.147c-.16-.037-.325-.075-.496-.112v-5.69a.591.591 0 0 0-.192-.424.59.59 0 0 0-.423-.192h-12.77a.59.59 0 0 0-.423.192.59.59 0 0 0-.192.423v12.77a.59.59 0 0 0 .192.423.59.59 0 0 0 .423.192h5.666c.024.187.055.36.093.521.038.16.087.32.147.479h-5.906ZM23 36v1-14 6.306-.075V36Zm2.5-1.73h3.96c.037-.171.087-.337.15-.497l.2-.504H25.5v1.001Zm0-3.77h6.58c.329-.23.652-.426.97-.587.32-.16.662-.285 1.027-.376V29.5H25.5v1Zm0-3.77h9v-1h-9v1ZM36 40.116c-1.114 0-2.06-.388-2.836-1.164-.777-.776-1.165-1.722-1.164-2.837 0-1.113.388-2.058 1.164-2.835.776-.777 1.721-1.165 2.836-1.165 1.114 0 2.06.388 2.836 1.165.777.777 1.165 1.722 1.164 2.835 0 1.115-.388 2.06-1.164 2.836-.777.776-1.723 1.165-2.836 1.165Z"/>
</svg>
