<svg xmlns="http://www.w3.org/2000/svg" width="60" height="60" fill="none" viewBox="0 0 60 60">
  <circle cx="30" cy="30" r="30" fill="#D4EEFD"/>
  <path fill="#04334E" stroke="#04334E" d="M30 21c1.134 0 2.071.384 2.843 1.157C33.615 22.929 34 23.866 34 25c0-1.134-.4-2.101-1.199-2.865C32.015 21.385 31.073 21 30 21Zm0 0c-1.134 0-2.071.384-2.843 1.157C26.384 22.929 26 23.866 26 25c0-1.134.4-2.101 1.199-2.865C27.985 21.385 28.927 21 30 21Zm5.288 13.213v-.001A.948.948 0 0 1 35 33.5c0-.294.095-.52.287-.712h.001A.948.948 0 0 1 36 32.5c.294 0 .52.095.712.287v.001A.948.948 0 0 1 37 33.5c0 .294-.095.52-.287.712h-.001A.948.948 0 0 1 36 34.5a.948.948 0 0 1-.712-.287ZM36 37.5c.98 0 1.73.17 2.283.476.548.302.717.622.717.949V39h-6v-.075c0-.328.169-.648.717-.95.552-.305 1.303-.476 2.283-.475ZM26 35c0 1.08.405 2.025 1.19 2.81.662.661 1.436 1.053 2.31 1.16v.004a3.791 3.791 0 0 1-2.343-1.13C26.384 37.07 26 36.133 26 35Zm4.977-8.023a1.316 1.316 0 0 1-.977.408c-.384 0-.701-.131-.977-.408a1.316 1.316 0 0 1-.408-.977c0-.384.131-.701.408-.977.276-.277.593-.408.977-.408s.701.131.977.408c.277.276.408.593.408.977s-.131.701-.408.977Z"/>
</svg>
