<svg xmlns="http://www.w3.org/2000/svg" width="60" height="60" fill="none" viewBox="0 0 60 60">
  <circle cx="30" cy="30" r="30" fill="#FFFDD3"/>
  <path fill="#8A8503" d="M26 29a.968.968 0 0 0 .713-.288A.964.964 0 0 0 27 28a.965.965 0 0 0-.288-.712A.973.973 0 0 0 26 27a.965.965 0 0 0-.712.288A.973.973 0 0 0 25 28c0 .283.096.521.288.713.192.192.43.288.712.287Zm4 0a.968.968 0 0 0 .713-.288A.964.964 0 0 0 31 28a.965.965 0 0 0-.288-.712A.973.973 0 0 0 30 27a.965.965 0 0 0-.712.288A.973.973 0 0 0 29 28c0 .283.096.521.288.713.192.192.43.288.712.287Zm4 0a.968.968 0 0 0 .713-.288A.964.964 0 0 0 35 28a.965.965 0 0 0-.288-.712A.973.973 0 0 0 34 27a.965.965 0 0 0-.712.288A.973.973 0 0 0 33 28c0 .283.096.521.288.713.192.192.43.288.712.287ZM20 40V22c0-.55.196-1.02.588-1.412A1.931 1.931 0 0 1 22 20h16c.55 0 1.021.196 1.413.588.392.392.588.863.587 1.412v12a1.93 1.93 0 0 1-.587 1.413A1.92 1.92 0 0 1 38 36H24l-4 4Zm3.15-6H38V22H22v13.125L23.15 34Z"/>
</svg>
