<svg xmlns="http://www.w3.org/2000/svg" width="61" height="61" fill="none" viewBox="0 0 61 61">
  <circle cx="30.75" cy="30.5" r="30" fill="#E7FFF1"/>
  <path fill="#325B43" d="M30.05 38.5c.1.333.238.68.413 1.038.175.359.354.68.537.962h-7.25c-.55 0-1.02-.196-1.412-.587a1.93 1.93 0 0 1-.588-1.413v-16c0-.55.196-1.02.588-1.412a1.931 1.931 0 0 1 1.412-.588h12c.55 0 1.021.196 1.413.588.392.392.588.863.587 1.412v7.1c-.3-.033-.633-.05-1-.05s-.7.017-1 .05v-7.1h-5v7l-2.5-1.5-2.5 1.5v-7h-2v16h6.3Zm6.7 3c-1.383 0-2.562-.488-3.537-1.463-.975-.975-1.462-2.154-1.463-3.537 0-1.383.488-2.562 1.463-3.537.975-.975 2.154-1.462 3.537-1.463 1.383 0 2.563.488 3.538 1.463.975.975 1.463 2.154 1.462 3.537 0 1.383-.488 2.563-1.463 3.538-.975.975-2.154 1.463-3.537 1.462ZM35.5 39l4-2.5-4-2.5v5Zm-5.45-16.5h-6.3 12-6 .3Z"/>
</svg>
