<svg xmlns="http://www.w3.org/2000/svg" width="60" height="60" fill="none" viewBox="0 0 60 60">
  <circle cx="30" cy="30" r="30" fill="#FEF9DB"/>
  <path fill="#A01F1F" d="M24.528 25.75a.75.75 0 1 1-1.5 0 .75.75 0 0 1 1.5 0ZM23.781 33a.75.75 0 1 0 0 1.5h5a.75.75 0 1 0 0-1.5h-5Zm-.75-3.25a.75.75 0 0 1 .75-.75h5a.75.75 0 1 1 0 1.5h-5a.75.75 0 0 1-.75-.75ZM33 39a1.986 1.986 0 0 0 1.934-1.597l.48-2.403h2.836A1.75 1.75 0 0 0 40 33.25v-5.989A2.261 2.261 0 0 0 37.75 25v-.004H32.5V23.25A2.25 2.25 0 0 0 30.25 21h-8A2.25 2.25 0 0 0 20 23.25v12.5A3.25 3.25 0 0 0 23.25 39H33ZM21.5 23.25a.75.75 0 0 1 .75-.75h8a.75.75 0 0 1 .75.75v13.764c0 .167.02.33.06.486h-7.81a1.75 1.75 0 0 1-1.75-1.75v-12.5Zm11 3.246h3.11a2.268 2.268 0 0 0-.088.322l-2.059 10.291a.487.487 0 0 1-.963-.095V26.496Zm4.493.616a.761.761 0 0 1 1.507.15v5.988a.25.25 0 0 1-.25.25h-2.535l1.278-6.388Z"/>
</svg>
