<svg xmlns="http://www.w3.org/2000/svg" width="60" height="60" fill="none" viewBox="0 0 60 60">
  <circle cx="30" cy="30" r="30" fill="#F6FFD2"/>
  <path fill="#647C04" d="m33.5 35.125 4.95-4.95a.948.948 0 0 1 .7-.275.95.95 0 0 1 .7.275.948.948 0 0 1 .275.7.948.948 0 0 1-.275.7l-5.65 5.65c-.2.2-.433.3-.7.3a.96.96 0 0 1-.7-.3l-2.85-2.85a.948.948 0 0 1-.275-.7.95.95 0 0 1 .275-.7.948.948 0 0 1 .7-.275.95.95 0 0 1 .7.275l2.15 2.15ZM23 39c-.55 0-1.02-.196-1.412-.587A1.93 1.93 0 0 1 21 37V23c0-.55.196-1.02.588-1.412A1.931 1.931 0 0 1 23 21h4.175c.183-.583.542-1.062 1.075-1.437A2.986 2.986 0 0 1 30 19a3 3 0 0 1 1.788.563c.525.375.88.854 1.062 1.437H37c.55 0 1.021.196 1.413.588.392.392.588.863.587 1.412v4a.968.968 0 0 1-.288.713A.964.964 0 0 1 38 28a.965.965 0 0 1-.712-.288A.973.973 0 0 1 37 27v-4h-2v2a.968.968 0 0 1-.288.713A.964.964 0 0 1 34 26h-8a.965.965 0 0 1-.712-.288A.973.973 0 0 1 25 25v-2h-2v14h5c.283 0 .521.096.713.288.192.192.288.43.287.712a.968.968 0 0 1-.288.713A.964.964 0 0 1 28 39h-5Zm7-16a.968.968 0 0 0 .713-.288A.964.964 0 0 0 31 22a.965.965 0 0 0-.288-.712A.973.973 0 0 0 30 21a.965.965 0 0 0-.712.288A.973.973 0 0 0 29 22c0 .283.096.521.288.713.192.192.43.288.712.287Z"/>
</svg>
