<svg xmlns="http://www.w3.org/2000/svg" width="60" height="60" fill="none" viewBox="0 0 60 60">
  <circle cx="30" cy="30" r="30" fill="#FEF9DB"/>
  <path fill="#A88E08" d="M32 30h1.5v2.82l2.44 1.41-.75 1.3L32 33.69V30ZM22 20h14a2 2 0 0 1 2 2v6.1c1.24 1.26 2 2.99 2 4.9a7 7 0 0 1-7 7c-1.91 0-3.64-.76-4.9-2H22a2 2 0 0 1-2-2V22a2 2 0 0 1 2-2Zm0 13v3h4.67c-.43-.91-.67-1.93-.67-3h-4Zm0-7h6v-3h-6v3Zm14 0v-3h-6v3h6Zm-14 5h4.29c.34-1.15.97-2.18 1.81-3H22v3Zm11-2.85a4.85 4.85 0 1 0 0 9.7 4.85 4.85 0 0 0 0-9.7Z"/>
</svg>
