<svg xmlns="http://www.w3.org/2000/svg" width="61" height="61" fill="none" viewBox="0 0 61 61">
  <circle cx="30.25" cy="30.5" r="30" fill="#DCD3FE"/>
  <path fill="#501D95" d="M31.81 30.764a5.903 5.903 0 0 0 2.04-4.464 6 6 0 1 0-12 0 5.904 5.904 0 0 0 2.04 4.464 9.6 9.6 0 0 0-5.64 8.736 1.2 1.2 0 1 0 2.4 0 7.2 7.2 0 0 1 14.4 0 1.2 1.2 0 1 0 2.4 0 9.6 9.6 0 0 0-5.64-8.736Zm-3.96-.864a3.6 3.6 0 1 1 0-7.2 3.6 3.6 0 0 1 0 7.2Zm14.052-2.844a1.202 1.202 0 0 0-1.704 0l-2.4 2.4-.744-.756a1.202 1.202 0 1 0-1.704 1.692L36.958 32a1.2 1.2 0 0 0 1.692 0l3.204-3.204a1.2 1.2 0 0 0 .048-1.74Z"/>
</svg>
