<svg xmlns="http://www.w3.org/2000/svg" width="60" height="60" fill="none" viewBox="0 0 60 60">
  <circle cx="30" cy="30" r="30" fill="#E5DFFF"/>
  <g clip-path="url(#a)">
    <path stroke="#2707A6" stroke-linecap="round" stroke-linejoin="round" stroke-width="2" d="M37.484 30.545a9.439 9.439 0 1 0-12.94 6.405m-5.666-8.654h18.876"/>
    <path stroke="#2707A6" stroke-linecap="round" stroke-linejoin="round" stroke-width="2" d="M25.512 32.652a16.286 16.286 0 0 1-.83-4.356 16.293 16.293 0 0 1 3.631-9.439 16.293 16.293 0 0 1 3.63 9.439 16.303 16.303 0 0 1-.195 1.807m2.466 1.916 6.908 2.994-6.908 2.993-6.905-2.993 6.908-2.994h-.003Z"/>
    <path stroke="#2707A6" stroke-linecap="round" stroke-linejoin="round" stroke-width="2" d="m30.44 36.377.007 3.257s1.14 1.509 3.767 1.509c2.626 0 3.771-1.509 3.771-1.509v-3.257m-10.678 3.9v-5.264"/>
  </g>
  <defs>
    <clipPath id="a">
      <path fill="#fff" d="M18 18h24v24H18z"/>
    </clipPath>
  </defs>
</svg>
