<svg xmlns="http://www.w3.org/2000/svg" width="60" height="60" fill="none" viewBox="0 0 60 60">
  <circle cx="30" cy="30" r="30" fill="#FCD4D4"/>
  <path fill="#700505" d="M30.58 19.04 27.96 23l1.392.174c-.432 1.413-.52 2.385-.416 4.318.663-.104 1.198-.142 1.902.066-.463-1.727-.414-2.317-.229-4.208l1.53.106-1.559-4.417Zm10.242.103-5.08 1.407.98 1.218c-2.32 1.454-3.765 2.604-4.909 5.773.619-.007 1.317.137 2.07.422.27-2.093 1.582-3.569 3.718-5.105l.937 1.163 2.284-4.878Zm-21.73.108 3.088 4.804.894-1.346c1.667 1.52 2.726 3.578 2.687 5.036.87-.408 1.402-.447 2.331-.177-.38-1.463-2.043-5.097-4.296-6.052l.777-1.22-5.481-1.045Zm12.943 10.063c-.248.005-.479.113-.794.45l-.308.326-.32-.315c-.346-.341-.619-.436-.896-.423-.277.012-.602.157-.966.452l-.292.236-.277-.252c-.417-.377-.772-.49-1.113-.472-.248.013-.505.107-.762.27l1.92 3.454c.725.443 2.205.61 3.223.097l1.856-3.438c-.352-.144-.668-.29-.942-.347a1.633 1.633 0 0 0-.33-.038Zm-4.218 4.508c-.845.598-1.524 1.628-1.787 3.136-.255 1.463.147 2.45.857 3.124.71.673 1.777 1.018 2.86 1.004 1.082-.014 2.162-.39 2.888-1.075.726-.685 1.137-1.66.904-3.055-.24-1.442-.862-2.445-1.65-3.052-1.334.706-3.004.556-4.072-.082Z"/>
</svg>
